<svg width="198" height="32" viewBox="0 0 198 32" fill="none" xmlns="http://www.w3.org/2000/svg">
<path d="M42.3003 24.1647C42.1182 24.1647 41.9543 24.101 41.8086 23.9735C41.6812 23.846 41.6174 23.6821 41.6174 23.4818V10.6431C41.6174 10.4428 41.6812 10.2789 41.8086 10.1514C41.9543 10.0239 42.1182 9.96018 42.3003 9.96018H44.8408C45.0411 9.96018 45.205 10.0239 45.3325 10.1514C45.4599 10.2789 45.5237 10.4428 45.5237 10.6431V11.5718C45.9061 11.0619 46.416 10.6249 47.0534 10.2607C47.709 9.89644 48.483 9.70522 49.3753 9.68701C51.4696 9.65059 52.9173 10.4519 53.7186 12.0909C54.1375 11.3806 54.7384 10.807 55.5215 10.3699C56.3046 9.91465 57.1696 9.68701 58.1165 9.68701C59.0635 9.68701 59.9194 9.90554 60.6843 10.3426C61.4492 10.7615 62.0592 11.4171 62.5145 12.3094C62.9698 13.1835 63.1974 14.3126 63.1974 15.6966V23.4818C63.1974 23.6821 63.1246 23.846 62.9789 23.9735C62.8514 24.101 62.6966 24.1647 62.5145 24.1647H59.8102C59.6098 24.1647 59.4459 24.101 59.3185 23.9735C59.191 23.846 59.1273 23.6821 59.1273 23.4818V15.9152C59.1273 15.1685 59.018 14.5858 58.7995 14.1669C58.5991 13.7481 58.3169 13.4476 57.9527 13.2655C57.6066 13.0651 57.2151 12.965 56.778 12.965C56.3956 12.965 56.0223 13.0651 55.6581 13.2655C55.3121 13.4476 55.0207 13.7481 54.7839 14.1669C54.5654 14.5858 54.4561 15.1685 54.4561 15.9152V23.4818C54.4561 23.6821 54.3924 23.846 54.2649 23.9735C54.1375 24.101 53.9827 24.1647 53.8006 24.1647H51.0962C50.8959 24.1647 50.732 24.101 50.6045 23.9735C50.4771 23.846 50.4133 23.6821 50.4133 23.4818V15.9152C50.4133 15.1685 50.3041 14.5858 50.0855 14.1669C49.867 13.7481 49.5756 13.4476 49.2114 13.2655C48.8654 13.0651 48.483 12.965 48.0641 12.965C47.6817 12.965 47.3084 13.0651 46.9441 13.2655C46.5981 13.4476 46.3068 13.7481 46.07 14.1669C45.8515 14.5858 45.7422 15.1594 45.7422 15.8878V23.4818C45.7422 23.6821 45.6785 23.846 45.551 23.9735C45.4235 24.101 45.2596 24.1647 45.0593 24.1647H42.3003Z" fill="#253D32"/>
<path d="M71.206 24.4379C70.2408 24.4379 69.3758 24.2558 68.611 23.8916C67.8461 23.5091 67.236 22.9992 66.7808 22.3618C66.3255 21.7244 66.0979 21.0142 66.0979 20.2312C66.0979 18.9382 66.6169 17.9184 67.6549 17.1717C68.7111 16.4251 70.0952 15.9152 71.807 15.642L75.3854 15.123V14.6313C75.3854 13.9211 75.2215 13.3747 74.8937 12.9923C74.5659 12.6099 73.9923 12.4187 73.1728 12.4187C72.5718 12.4187 72.0893 12.537 71.725 12.7738C71.379 13.0105 71.1059 13.3201 70.9055 13.7025C70.7599 13.9393 70.5413 14.0576 70.2499 14.0576H67.6549C67.4546 14.0576 67.2998 14.003 67.1905 13.8937C67.0812 13.7663 67.0357 13.6206 67.0539 13.4567C67.0539 13.1471 67.1723 12.7829 67.409 12.364C67.6458 11.9452 68.01 11.5354 68.5017 11.1348C68.9934 10.7159 69.6217 10.3699 70.3865 10.0968C71.1696 9.82359 72.1075 9.68701 73.2001 9.68701C74.3474 9.68701 75.3308 9.82359 76.1503 10.0968C76.9698 10.3699 77.6254 10.7524 78.1171 11.244C78.627 11.7357 78.9912 12.3094 79.2097 12.965C79.4465 13.6024 79.5648 14.2944 79.5648 15.041V23.4818C79.5648 23.6821 79.5011 23.846 79.3736 23.9735C79.2462 24.101 79.0914 24.1647 78.9093 24.1647H76.2049C76.0228 24.1647 75.868 24.101 75.7405 23.9735C75.6131 23.846 75.5493 23.6821 75.5493 23.4818V22.4711C75.3126 22.8171 74.9939 23.1449 74.5933 23.4545C74.1926 23.7459 73.71 23.9826 73.1455 24.1647C72.5992 24.3468 71.9527 24.4379 71.206 24.4379ZM72.2987 21.597C72.8996 21.597 73.4369 21.4695 73.9104 21.2145C74.3838 20.9596 74.7572 20.5681 75.0303 20.0399C75.3035 19.5118 75.4401 18.8471 75.4401 18.0458V17.5815L72.8996 17.9912C71.9345 18.1551 71.2242 18.401 70.769 18.7287C70.3137 19.0565 70.0861 19.4572 70.0861 19.9307C70.0861 20.2767 70.1862 20.5772 70.3865 20.8321C70.6051 21.0689 70.8782 21.2601 71.206 21.4058C71.552 21.5332 71.9163 21.597 72.2987 21.597Z" fill="#253D32"/>
<path d="M84.0742 24.1647C83.8921 24.1647 83.7282 24.101 83.5825 23.9735C83.455 23.846 83.3913 23.6821 83.3913 23.4818V10.6431C83.3913 10.461 83.455 10.3062 83.5825 10.1787C83.7282 10.033 83.8921 9.96018 84.0742 9.96018H86.7512C86.9515 9.96018 87.1154 10.033 87.2429 10.1787C87.3704 10.3062 87.4341 10.461 87.4341 10.6431V11.7357C87.8894 11.1712 88.4539 10.7341 89.1277 10.4246C89.8015 10.115 90.5664 9.96018 91.4223 9.96018H92.5969C92.7972 9.96018 92.9611 10.0239 93.0886 10.1514C93.2161 10.2789 93.2798 10.4428 93.2798 10.6431V13.0196C93.2798 13.2017 93.2161 13.3565 93.0886 13.484C92.9611 13.6115 92.7972 13.6752 92.5969 13.6752H90.2204C89.4009 13.6752 88.7635 13.9028 88.3082 14.3581C87.8712 14.8134 87.6526 15.4417 87.6526 16.243V23.4818C87.6526 23.6821 87.5798 23.846 87.4341 23.9735C87.3066 24.101 87.1518 24.1647 86.9697 24.1647H84.0742Z" fill="#253D32"/>
<path d="M96.5454 24.1647C96.3451 24.1647 96.1812 24.101 96.0537 23.9735C95.9262 23.846 95.8625 23.6821 95.8625 23.4818V5.45297C95.8625 5.25265 95.9262 5.08875 96.0537 4.96127C96.1812 4.83379 96.3451 4.77005 96.5454 4.77005H99.2224C99.4045 4.77005 99.5593 4.83379 99.6868 4.96127C99.8325 5.08875 99.9053 5.25265 99.9053 5.45297V14.6859L104.085 10.4246C104.23 10.2971 104.358 10.1878 104.467 10.0968C104.595 10.0057 104.786 9.96018 105.041 9.96018H108.155C108.319 9.96018 108.455 10.0239 108.565 10.1514C108.692 10.2607 108.756 10.3972 108.756 10.5611C108.756 10.634 108.738 10.7159 108.701 10.807C108.665 10.898 108.601 10.9709 108.51 11.0255L103.238 16.3249L109.193 23.1267C109.339 23.2724 109.411 23.4181 109.411 23.5638C109.411 23.7277 109.357 23.8733 109.248 24.0008C109.138 24.1101 108.993 24.1647 108.81 24.1647H105.642C105.369 24.1647 105.168 24.1192 105.041 24.0281C104.932 23.9371 104.804 23.8278 104.658 23.7003L99.9053 18.3463V23.4818C99.9053 23.6821 99.8325 23.846 99.6868 23.9735C99.5593 24.101 99.4045 24.1647 99.2224 24.1647H96.5454Z" fill="#253D32"/>
<path d="M117.605 24.4379C115.511 24.4379 113.844 23.8551 112.606 22.6896C111.386 21.5241 110.739 19.8305 110.667 17.6088C110.667 17.4631 110.667 17.2719 110.667 17.0351C110.667 16.7802 110.667 16.589 110.667 16.4615C110.739 15.041 111.058 13.83 111.623 12.8284C112.187 11.8086 112.979 11.0346 113.999 10.5065C115.019 9.96018 116.212 9.68701 117.578 9.68701C119.125 9.68701 120.409 10.0057 121.429 10.6431C122.449 11.2623 123.214 12.1182 123.724 13.2108C124.252 14.2853 124.516 15.5236 124.516 16.9259V17.5541C124.516 17.7363 124.452 17.9002 124.325 18.0458C124.197 18.1733 124.033 18.2371 123.833 18.2371H114.928C114.928 18.2371 114.928 18.2644 114.928 18.319C114.928 18.3554 114.928 18.3918 114.928 18.4283C114.946 19.011 115.055 19.5482 115.256 20.0399C115.456 20.5134 115.747 20.8959 116.13 21.1872C116.53 21.4786 117.013 21.6243 117.578 21.6243C118.015 21.6243 118.379 21.5606 118.67 21.4331C118.962 21.2874 119.198 21.1326 119.38 20.9687C119.581 20.7866 119.726 20.6318 119.818 20.5043C119.981 20.304 120.109 20.1856 120.2 20.1492C120.309 20.0946 120.464 20.0673 120.664 20.0673H123.56C123.724 20.0673 123.86 20.1219 123.97 20.2312C124.097 20.3404 124.152 20.477 124.134 20.6409C124.115 20.9505 123.961 21.3238 123.669 21.7609C123.396 22.1797 122.986 22.5986 122.44 23.0174C121.894 23.4181 121.211 23.755 120.391 24.0281C119.59 24.3013 118.661 24.4379 117.605 24.4379ZM114.928 15.7239H120.255V15.642C120.255 15.0046 120.145 14.4492 119.927 13.9757C119.726 13.484 119.426 13.1016 119.025 12.8284C118.625 12.5552 118.142 12.4187 117.578 12.4187C117.013 12.4187 116.53 12.5552 116.13 12.8284C115.747 13.1016 115.447 13.484 115.228 13.9757C115.028 14.4492 114.928 15.0046 114.928 15.642V15.7239Z" fill="#253D32"/>
<path d="M134.595 24.1647C133.466 24.1647 132.501 23.9826 131.7 23.6184C130.917 23.236 130.316 22.6532 129.897 21.8701C129.478 21.0871 129.269 20.1037 129.269 18.92V13.1835H127.138C126.938 13.1835 126.774 13.1198 126.646 12.9923C126.519 12.8648 126.455 12.71 126.455 12.5279V10.6431C126.455 10.4428 126.519 10.2789 126.646 10.1514C126.774 10.0239 126.938 9.96018 127.138 9.96018H129.269V5.45297C129.269 5.25265 129.332 5.08875 129.46 4.96127C129.605 4.83379 129.769 4.77005 129.951 4.77005H132.656C132.838 4.77005 132.993 4.83379 133.12 4.96127C133.248 5.08875 133.311 5.25265 133.311 5.45297V9.96018H136.726C136.926 9.96018 137.09 10.0239 137.218 10.1514C137.345 10.2789 137.409 10.4428 137.409 10.6431V12.5279C137.409 12.71 137.345 12.8648 137.218 12.9923C137.09 13.1198 136.926 13.1835 136.726 13.1835H133.311V18.5922C133.311 19.2842 133.439 19.8305 133.694 20.2312C133.949 20.6136 134.377 20.8048 134.978 20.8048H136.972C137.172 20.8048 137.336 20.8685 137.463 20.996C137.591 21.1235 137.655 21.2783 137.655 21.4604V23.4818C137.655 23.6821 137.591 23.846 137.463 23.9735C137.336 24.101 137.172 24.1647 136.972 24.1647H134.595Z" fill="#253D32"/>
<path d="M141.24 24.1647C141.039 24.1647 140.876 24.101 140.748 23.9735C140.621 23.846 140.557 23.6821 140.557 23.4818V5.45297C140.557 5.25265 140.621 5.08875 140.748 4.96127C140.876 4.83379 141.039 4.77005 141.24 4.77005H144.19C144.39 4.77005 144.554 4.83379 144.682 4.96127C144.809 5.08875 144.873 5.25265 144.873 5.45297V11.5992C145.346 11.0164 145.938 10.552 146.648 10.206C147.377 9.86001 148.242 9.68701 149.243 9.68701C150.318 9.68701 151.265 9.93286 152.084 10.4246C152.922 10.898 153.569 11.5992 154.024 12.5279C154.497 13.4385 154.734 14.5493 154.734 15.8605V23.4818C154.734 23.6821 154.67 23.846 154.543 23.9735C154.415 24.101 154.252 24.1647 154.051 24.1647H151.074C150.892 24.1647 150.737 24.101 150.609 23.9735C150.482 23.846 150.418 23.6821 150.418 23.4818V16.0244C150.418 15.0592 150.181 14.3126 149.708 13.7845C149.234 13.2381 148.561 12.965 147.686 12.965C146.831 12.965 146.148 13.2381 145.638 13.7845C145.128 14.3126 144.873 15.0592 144.873 16.0244V23.4818C144.873 23.6821 144.809 23.846 144.682 23.9735C144.554 24.101 144.39 24.1647 144.19 24.1647H141.24Z" fill="#253D32"/>
<path d="M159.205 24.1647C159.023 24.1647 158.859 24.101 158.713 23.9735C158.586 23.846 158.522 23.6821 158.522 23.4818V10.6431C158.522 10.4428 158.586 10.2789 158.713 10.1514C158.859 10.0239 159.023 9.96018 159.205 9.96018H161.964C162.146 9.96018 162.301 10.0239 162.428 10.1514C162.556 10.2789 162.62 10.4428 162.62 10.6431V23.4818C162.62 23.6821 162.556 23.846 162.428 23.9735C162.301 24.101 162.146 24.1647 161.964 24.1647H159.205ZM159.123 7.77486C158.941 7.77486 158.786 7.71112 158.659 7.58365C158.531 7.45617 158.467 7.29227 158.467 7.09195V4.87932C158.467 4.69721 158.531 4.54242 158.659 4.41494C158.786 4.26925 158.941 4.19641 159.123 4.19641H162.019C162.201 4.19641 162.356 4.26925 162.483 4.41494C162.629 4.54242 162.702 4.69721 162.702 4.87932V7.09195C162.702 7.29227 162.629 7.45617 162.483 7.58365C162.356 7.71112 162.201 7.77486 162.019 7.77486H159.123Z" fill="#253D32"/>
<path d="M167.274 24.1647C167.092 24.1647 166.928 24.101 166.782 23.9735C166.655 23.846 166.591 23.6821 166.591 23.4818V10.6431C166.591 10.4428 166.655 10.2789 166.782 10.1514C166.928 10.0239 167.092 9.96018 167.274 9.96018H169.951C170.151 9.96018 170.315 10.0239 170.443 10.1514C170.57 10.2789 170.634 10.4428 170.634 10.6431V11.7084C171.107 11.1257 171.718 10.6431 172.464 10.2607C173.229 9.87823 174.14 9.68701 175.196 9.68701C176.27 9.68701 177.217 9.93286 178.037 10.4246C178.856 10.898 179.494 11.5992 179.949 12.5279C180.404 13.4385 180.632 14.5493 180.632 15.8605V23.4818C180.632 23.6821 180.568 23.846 180.441 23.9735C180.313 24.101 180.149 24.1647 179.949 24.1647H177.053C176.853 24.1647 176.689 24.101 176.562 23.9735C176.434 23.846 176.37 23.6821 176.37 23.4818V16.0244C176.37 15.0592 176.134 14.3126 175.66 13.7845C175.205 13.2381 174.531 12.965 173.639 12.965C172.783 12.965 172.1 13.2381 171.59 13.7845C171.098 14.3126 170.852 15.0592 170.852 16.0244V23.4818C170.852 23.6821 170.789 23.846 170.661 23.9735C170.534 24.101 170.37 24.1647 170.17 24.1647H167.274Z" fill="#253D32"/>
<path d="M185.134 24.1647C184.934 24.1647 184.77 24.101 184.642 23.9735C184.515 23.846 184.451 23.6821 184.451 23.4818V5.45297C184.451 5.25265 184.515 5.08875 184.642 4.96127C184.77 4.83379 184.934 4.77005 185.134 4.77005H187.811C187.993 4.77005 188.148 4.83379 188.275 4.96127C188.421 5.08875 188.494 5.25265 188.494 5.45297V14.6859L192.673 10.4246C192.819 10.2971 192.946 10.1878 193.056 10.0968C193.183 10.0057 193.374 9.96018 193.629 9.96018H196.743C196.907 9.96018 197.044 10.0239 197.153 10.1514C197.281 10.2607 197.344 10.3972 197.344 10.5611C197.344 10.634 197.326 10.7159 197.29 10.807C197.253 10.898 197.189 10.9709 197.098 11.0255L191.826 16.3249L197.781 23.1267C197.927 23.2724 198 23.4181 198 23.5638C198 23.7277 197.945 23.8733 197.836 24.0008C197.727 24.1101 197.581 24.1647 197.399 24.1647H194.23C193.957 24.1647 193.757 24.1192 193.629 24.0281C193.52 23.9371 193.393 23.8278 193.247 23.7003L188.494 18.3463V23.4818C188.494 23.6821 188.421 23.846 188.275 23.9735C188.148 24.101 187.993 24.1647 187.811 24.1647H185.134Z" fill="#253D32"/>
<path d="M22.3257 28.8924C25.9523 28.8924 28.8922 25.9525 28.8922 22.3259C28.8922 18.6994 25.9523 15.7595 22.3257 15.7595C18.6992 15.7595 15.7593 18.6994 15.7593 22.3259C15.7593 25.9525 18.6992 28.8924 22.3257 28.8924Z" fill="#EDFF81"/>
<path d="M24.2957 11.8196C26.8343 11.8196 28.8922 9.76168 28.8922 7.2231C28.8922 4.68452 26.8343 2.62659 24.2957 2.62659C21.7571 2.62659 19.6992 4.68452 19.6992 7.2231C19.6992 9.76168 21.7571 11.8196 24.2957 11.8196Z" fill="#253D32"/>
<path d="M7.26253 28.853C9.80111 28.853 11.859 26.7951 11.859 24.2565C11.859 21.7179 9.80111 19.66 7.26253 19.66C4.72394 19.66 2.66602 21.7179 2.66602 24.2565C2.66602 26.7951 4.72394 28.853 7.26253 28.853Z" fill="#253D32"/>
<path d="M9.19291 15.7595C12.8195 15.7595 15.7594 12.8196 15.7594 9.19303C15.7594 5.56648 12.8195 2.62659 9.19291 2.62659C5.56636 2.62659 2.62646 5.56648 2.62646 9.19303C2.62646 12.8196 5.56636 15.7595 9.19291 15.7595Z" fill="#EDFF81"/>
</svg>
