<svg width="177" height="31" viewBox="0 0 177 31" fill="none" xmlns="http://www.w3.org/2000/svg">
<path d="M43.2432 10.2637L43.3828 11.876C44.3561 10.6318 45.6637 10.0098 47.3057 10.0098C49.0407 10.0098 50.2129 10.6995 50.8223 12.0791C51.7533 10.6995 53.099 10.0098 54.8594 10.0098C57.6439 10.0098 59.0742 11.694 59.1504 15.0625V24H54.8594V15.3291C54.8594 14.6266 54.7409 14.1146 54.5039 13.793C54.2669 13.4714 53.8353 13.3105 53.209 13.3105C52.3626 13.3105 51.7321 13.6872 51.3174 14.4404L51.3301 14.6182V24H47.0391V15.3545C47.0391 14.6351 46.9248 14.1146 46.6963 13.793C46.4678 13.4714 46.0319 13.3105 45.3887 13.3105C44.5677 13.3105 43.9414 13.6872 43.5098 14.4404V24H39.2314V10.2637H43.2432ZM69.852 24C69.6997 23.7207 69.5643 23.3102 69.4458 22.7686C68.6587 23.7588 67.5584 24.2539 66.145 24.2539C64.8501 24.2539 63.7498 23.8646 62.8442 23.0859C61.9386 22.2988 61.4858 21.3128 61.4858 20.1279C61.4858 18.6383 62.036 17.5127 63.1362 16.751C64.2365 15.9893 65.8361 15.6084 67.935 15.6084H69.2554V14.8848C69.2554 13.6237 68.7095 12.9932 67.6177 12.9932C66.602 12.9932 66.0942 13.4925 66.0942 14.4912H61.8159C61.8159 13.1624 62.3787 12.0833 63.5044 11.2539C64.6385 10.4245 66.0815 10.0098 67.8335 10.0098C69.5854 10.0098 70.9692 10.4372 71.9848 11.292C73.0005 12.1468 73.521 13.319 73.5464 14.8086V20.8896C73.5633 22.1507 73.758 23.1156 74.1304 23.7842V24H69.852ZM67.1733 21.207C67.7065 21.207 68.1466 21.0928 68.4936 20.8643C68.8491 20.6357 69.103 20.3776 69.2554 20.0898V17.8936H68.0112C66.5216 17.8936 65.7768 18.5622 65.7768 19.8994C65.7768 20.2887 65.908 20.6061 66.1704 20.8516C66.4328 21.0885 66.7671 21.207 67.1733 21.207ZM84.7558 14.1357L83.3466 14.0342C82.0009 14.0342 81.1377 14.4574 80.7568 15.3037V24H76.4785V10.2637H80.4902L80.6298 12.0283C81.3492 10.6826 82.3522 10.0098 83.6386 10.0098C84.0957 10.0098 84.4935 10.0605 84.832 10.1621L84.7558 14.1357ZM92.3344 18.8838L91.1284 20.0898V24H86.85V4.4873H91.1284V14.8467L91.56 14.2754L94.7846 10.2637H99.9135L95.102 15.9131L100.231 24H95.3305L92.3344 18.8838ZM107.949 24.2539C105.842 24.2539 104.136 23.6276 102.833 22.375C101.53 21.1139 100.878 19.4762 100.878 17.4619V17.1064C100.878 15.7015 101.136 14.4616 101.652 13.3867C102.177 12.3118 102.939 11.4824 103.937 10.8984C104.936 10.306 106.121 10.0098 107.492 10.0098C109.422 10.0098 110.945 10.6107 112.062 11.8125C113.18 13.0059 113.738 14.6732 113.738 16.8145V18.4775H105.232C105.385 19.2477 105.719 19.8529 106.235 20.293C106.752 20.7331 107.42 20.9531 108.241 20.9531C109.595 20.9531 110.653 20.4792 111.415 19.5312L113.37 21.8418C112.837 22.5781 112.079 23.1663 111.098 23.6064C110.124 24.0381 109.075 24.2539 107.949 24.2539ZM107.467 13.3105C106.214 13.3105 105.469 14.14 105.232 15.7988H109.549V15.4688C109.566 14.7832 109.392 14.2542 109.028 13.8818C108.664 13.501 108.144 13.3105 107.467 13.3105ZM120.974 6.84863V10.2637H123.234V13.2344H120.974V19.5186C120.974 20.0348 121.067 20.3945 121.253 20.5977C121.44 20.8008 121.808 20.9023 122.358 20.9023C122.781 20.9023 123.136 20.877 123.424 20.8262V23.8857C122.654 24.1312 121.85 24.2539 121.012 24.2539C119.539 24.2539 118.452 23.9069 117.749 23.2129C117.047 22.5189 116.696 21.4652 116.696 20.0518V13.2344H114.944V10.2637H116.696V6.84863H120.974ZM129.632 11.7363C130.546 10.5853 131.714 10.0098 133.136 10.0098C134.651 10.0098 135.793 10.4583 136.563 11.3555C137.334 12.2526 137.727 13.5771 137.744 15.3291V24H133.453V15.4307C133.453 14.7028 133.305 14.1696 133.009 13.8311C132.712 13.484 132.209 13.3105 131.498 13.3105C130.618 13.3105 129.996 13.5898 129.632 14.1484V24H125.353V4.5H129.632V11.7363ZM145.158 24H140.867V10.2637H145.158V24ZM140.613 6.72168C140.613 6.1123 140.833 5.61296 141.273 5.22363C141.713 4.83431 142.284 4.63965 142.987 4.63965C143.689 4.63965 144.26 4.83431 144.701 5.22363C145.141 5.61296 145.361 6.1123 145.361 6.72168C145.361 7.33105 145.141 7.8304 144.701 8.21973C144.26 8.60905 143.689 8.80371 142.987 8.80371C142.284 8.80371 141.713 8.60905 141.273 8.21973C140.833 7.8304 140.613 7.33105 140.613 6.72168ZM152.254 10.2637L152.393 11.876C153.341 10.6318 154.649 10.0098 156.316 10.0098C157.747 10.0098 158.813 10.4372 159.515 11.292C160.226 12.1468 160.595 13.4333 160.62 15.1514V24H156.329V15.3291C156.329 14.6351 156.189 14.1273 155.91 13.8057C155.631 13.4756 155.123 13.3105 154.387 13.3105C153.549 13.3105 152.927 13.6406 152.52 14.3008V24H148.242V10.2637H152.254ZM169.036 18.8838L167.83 20.0898V24H163.552V4.4873H167.83V14.8467L168.262 14.2754L171.487 10.2637H176.616L171.804 15.9131L176.933 24H172.033L169.036 18.8838Z" fill="white"/>
<path d="M21.25 28.5C24.7018 28.5 27.5 25.7018 27.5 22.25C27.5 18.7982 24.7018 16 21.25 16C17.7982 16 15 18.7982 15 22.25C15 25.7018 17.7982 28.5 21.25 28.5Z" fill="#EDFF81"/>
<path d="M23.125 12.25C25.5412 12.25 27.5 10.2912 27.5 7.875C27.5 5.45875 25.5412 3.5 23.125 3.5C20.7088 3.5 18.75 5.45875 18.75 7.875C18.75 10.2912 20.7088 12.25 23.125 12.25Z" fill="white"/>
<path d="M6.9126 28.4625C9.32884 28.4625 11.2876 26.5038 11.2876 24.0875C11.2876 21.6713 9.32884 19.7125 6.9126 19.7125C4.49635 19.7125 2.5376 21.6713 2.5376 24.0875C2.5376 26.5038 4.49635 28.4625 6.9126 28.4625Z" fill="white"/>
<path d="M8.75 16C12.2018 16 15 13.2018 15 9.75C15 6.29822 12.2018 3.5 8.75 3.5C5.29822 3.5 2.5 6.29822 2.5 9.75C2.5 13.2018 5.29822 16 8.75 16Z" fill="#EDFF81"/>
</svg>
