<svg width="43" height="50" viewBox="0 0 43 50" fill="none" xmlns="http://www.w3.org/2000/svg">
<path d="M15.3054 12.5027L21.2153 1.14441e-05H37.336L38.5134 12.5027H15.3054Z" fill="#F8C67C"/>
<path d="M3.91699 12.5027L5.09434 1.14441e-05H21.215V12.5027H3.91699Z" fill="#F8C67C"/>
<path d="M21.2153 50L15.3054 27.9297L21.2153 5.85938H31.1579C33.0025 5.85938 34.7692 6.5376 36.1328 7.76924C37.4965 9.00088 38.3419 10.6819 38.5133 12.5027L42.0442 50H21.2153Z" fill="#F39321"/>
<path d="M6.29769 7.76924C7.6613 6.5376 9.42806 5.85938 11.2726 5.85938H21.2152V50H0.38623L3.91719 12.5027C4.08868 10.6818 4.93409 9.00078 6.29769 7.76924Z" fill="#F3A141"/>
</svg>
