<svg width="168" height="40" viewBox="0 0 168 40" fill="none" xmlns="http://www.w3.org/2000/svg">
<path fill-rule="evenodd" clip-rule="evenodd" d="M64 20C64 8.95431 72.9543 0 84 0C95.0457 0 104 8.95431 104 20C104 31.0457 95.0457 40 84 40C72.9543 40 64 31.0457 64 20ZM91.625 14.375C92.5 14.25 93.25 14.125 94 13.75C93.5 14.625 92.75 15.375 91.875 15.875C92.125 21.75 87.875 28.125 80.25 28.125C78 28.125 75.875 27.375 74 26.25C76.125 26.5 78.375 25.875 79.875 24.75C78 24.75 76.5 23.5 76 21.875C76.625 22 77.25 21.875 77.875 21.75C76 21.25 74.625 19.5 74.625 17.625C75.25 17.875 75.875 18.125 76.5 18.125C74.75 16.875 74.125 14.5 75.25 12.625C77.375 15.125 80.375 16.75 83.75 16.875C83.125 14.375 85.125 11.875 87.75 11.875C88.875 11.875 90 12.375 90.75 13.125C91.75 12.875 92.625 12.625 93.375 12.125C93.125 13.125 92.5 13.875 91.625 14.375Z" fill="#A2BDAA"/>
<path fill-rule="evenodd" clip-rule="evenodd" d="M0 20C0 8.95431 8.95431 0 20 0C31.0457 0 40 8.95431 40 20C40 31.0457 31.0457 40 20 40C8.95431 40 0 31.0457 0 20ZM20 10C25.5 10 30 14.5 30 20C30 25 26.375 29.25 21.375 30V22.875H23.75L24.25 20H21.5V18.125C21.5 17.375 21.875 16.625 23.125 16.625H24.375V14.125C24.375 14.125 23.25 13.875 22.125 13.875C19.875 13.875 18.375 15.25 18.375 17.75V20H15.875V22.875H18.375V29.875C13.625 29.125 10 25 10 20C10 14.5 14.5 10 20 10Z" fill="#A2BDAA"/>
<path d="M148 23.5C146.125 23.5 144.5 22 144.5 20C144.5 18.125 146 16.5 148 16.5C149.875 16.5 151.5 18 151.5 20C151.5 21.875 149.875 23.5 148 23.5Z" fill="#A2BDAA"/>
<path fill-rule="evenodd" clip-rule="evenodd" d="M152.25 11.5H143.75C142.75 11.625 142.25 11.75 141.875 11.875C141.375 12 141 12.25 140.625 12.625C140.328 12.9217 140.188 13.2185 140.019 13.5771C139.974 13.6717 139.927 13.7707 139.875 13.875C139.856 13.933 139.833 13.994 139.809 14.0594C139.679 14.4167 139.5 14.9047 139.5 15.75V24.25C139.625 25.25 139.75 25.75 139.875 26.125C140 26.625 140.25 27 140.625 27.375C140.922 27.6717 141.218 27.8119 141.577 27.9814C141.672 28.0261 141.771 28.0728 141.875 28.125C141.933 28.1443 141.994 28.1667 142.059 28.1906C142.417 28.3214 142.905 28.5 143.75 28.5H152.25C153.25 28.375 153.75 28.25 154.125 28.125C154.625 28 155 27.75 155.375 27.375C155.672 27.0783 155.812 26.7815 155.981 26.4229C156.026 26.3283 156.073 26.2293 156.125 26.125C156.144 26.067 156.167 26.006 156.191 25.9406C156.321 25.5833 156.5 25.0953 156.5 24.25V15.75C156.375 14.75 156.25 14.25 156.125 13.875C156 13.375 155.75 13 155.375 12.625C155.078 12.3283 154.782 12.1881 154.423 12.0186C154.328 11.974 154.229 11.9271 154.125 11.875C154.067 11.8557 154.006 11.8333 153.941 11.8094C153.583 11.6786 153.095 11.5 152.25 11.5ZM148 14.625C145 14.625 142.625 17 142.625 20C142.625 23 145 25.375 148 25.375C151 25.375 153.375 23 153.375 20C153.375 17 151 14.625 148 14.625ZM154.75 14.5C154.75 15.1904 154.19 15.75 153.5 15.75C152.81 15.75 152.25 15.1904 152.25 14.5C152.25 13.8096 152.81 13.25 153.5 13.25C154.19 13.25 154.75 13.8096 154.75 14.5Z" fill="#A2BDAA"/>
<path fill-rule="evenodd" clip-rule="evenodd" d="M128 20C128 8.95431 136.954 0 148 0C159.046 0 168 8.95431 168 20C168 31.0457 159.046 40 148 40C136.954 40 128 31.0457 128 20ZM143.75 9.625H152.25C153.375 9.75 154.125 9.875 154.75 10.125C155.5 10.5 156 10.75 156.625 11.375C157.25 12 157.625 12.625 157.875 13.25C158.125 13.875 158.375 14.625 158.375 15.75V24.25C158.25 25.375 158.125 26.125 157.875 26.75C157.5 27.5 157.25 28 156.625 28.625C156 29.25 155.375 29.625 154.75 29.875C154.125 30.125 153.375 30.375 152.25 30.375H143.75C142.625 30.25 141.875 30.125 141.25 29.875C140.5 29.5 140 29.25 139.375 28.625C138.75 28 138.375 27.375 138.125 26.75C137.875 26.125 137.625 25.375 137.625 24.25V15.75C137.75 14.625 137.875 13.875 138.125 13.25C138.5 12.5 138.75 12 139.375 11.375C140 10.75 140.625 10.375 141.25 10.125C141.875 9.875 142.625 9.625 143.75 9.625Z" fill="#A2BDAA"/>
</svg>
